<svg width="18" height="20" viewBox="0 0 18 20" fill="none" xmlns="http://www.w3.org/2000/svg">
<path d="M17.252 3.5H13.502V2.75C13.502 2.15326 13.2649 1.58097 12.8429 1.15901C12.421 0.737053 11.8487 0.5 11.252 0.5H6.75195C6.15522 0.5 5.58292 0.737053 5.16096 1.15901C4.73901 1.58097 4.50195 2.15326 4.50195 2.75V3.5H0.751953C0.553041 3.5 0.362275 3.57902 0.221623 3.71967C0.0809709 3.86032 0.00195313 4.05109 0.00195312 4.25C0.00195313 4.44891 0.0809709 4.63968 0.221623 4.78033C0.362275 4.92098 0.553041 5 0.751953 5H1.50195V18.5C1.50195 18.8978 1.65999 19.2794 1.94129 19.5607C2.2226 19.842 2.60413 20 3.00195 20H15.002C15.3998 20 15.7813 19.842 16.0626 19.5607C16.3439 19.2794 16.502 18.8978 16.502 18.5V5H17.252C17.4509 5 17.6416 4.92098 17.7823 4.78033C17.9229 4.63968 18.002 4.44891 18.002 4.25C18.002 4.05109 17.9229 3.86032 17.7823 3.71967C17.6416 3.57902 17.4509 3.5 17.252 3.5ZM6.00195 2.75C6.00195 2.55109 6.08097 2.36032 6.22162 2.21967C6.36228 2.07902 6.55304 2 6.75195 2H11.252C11.4509 2 11.6416 2.07902 11.7823 2.21967C11.9229 2.36032 12.002 2.55109 12.002 2.75V3.5H6.00195V2.75ZM15.002 18.5H3.00195V5H15.002V18.5ZM7.50195 8.75V14.75C7.50195 14.9489 7.42294 15.1397 7.28228 15.2803C7.14163 15.421 6.95087 15.5 6.75195 15.5C6.55304 15.5 6.36228 15.421 6.22162 15.2803C6.08097 15.1397 6.00195 14.9489 6.00195 14.75V8.75C6.00195 8.55109 6.08097 8.36032 6.22162 8.21967C6.36228 8.07902 6.55304 8 6.75195 8C6.95087 8 7.14163 8.07902 7.28228 8.21967C7.42294 8.36032 7.50195 8.55109 7.50195 8.75ZM12.002 8.75V14.75C12.002 14.9489 11.9229 15.1397 11.7823 15.2803C11.6416 15.421 11.4509 15.5 11.252 15.5C11.053 15.5 10.8623 15.421 10.7216 15.2803C10.581 15.1397 10.502 14.9489 10.502 14.75V8.75C10.502 8.55109 10.581 8.36032 10.7216 8.21967C10.8623 8.07902 11.053 8 11.252 8C11.4509 8 11.6416 8.07902 11.7823 8.21967C11.9229 8.36032 12.002 8.55109 12.002 8.75Z" fill="white"/>
</svg>
