<svg width="16" height="16" viewBox="0 0 16 16" fill="none" xmlns="http://www.w3.org/2000/svg">
<path d="M15.283 14.2193C15.3527 14.289 15.408 14.3717 15.4457 14.4628C15.4834 14.5538 15.5028 14.6514 15.5028 14.7499C15.5028 14.8485 15.4834 14.9461 15.4457 15.0371C15.408 15.1281 15.3527 15.2109 15.283 15.2806C15.2133 15.3502 15.1306 15.4055 15.0395 15.4432C14.9485 15.4809 14.8509 15.5003 14.7524 15.5003C14.6538 15.5003 14.5562 15.4809 14.4652 15.4432C14.3742 15.4055 14.2914 15.3502 14.2217 15.2806L8.00237 9.06024L1.783 15.2806C1.64226 15.4213 1.45139 15.5003 1.25237 15.5003C1.05335 15.5003 0.862476 15.4213 0.721745 15.2806C0.581015 15.1398 0.501953 14.949 0.501953 14.7499C0.501953 14.5509 0.581015 14.36 0.721745 14.2193L6.94206 7.99993L0.721745 1.78055C0.581015 1.63982 0.501953 1.44895 0.501953 1.24993C0.501953 1.05091 0.581015 0.860034 0.721745 0.719304C0.862476 0.578573 1.05335 0.499512 1.25237 0.499512C1.45139 0.499512 1.64226 0.578573 1.783 0.719304L8.00237 6.93962L14.2217 0.719304C14.3625 0.578573 14.5533 0.499512 14.7524 0.499512C14.9514 0.499512 15.1423 0.578573 15.283 0.719304C15.4237 0.860034 15.5028 1.05091 15.5028 1.24993C15.5028 1.44895 15.4237 1.63982 15.283 1.78055L9.06268 7.99993L15.283 14.2193Z" fill="white"/>
</svg>
