<svg width="19" height="9" viewBox="0 0 19 9" fill="none" xmlns="http://www.w3.org/2000/svg">
<path d="M15.127 4.625C15.127 4.79076 15.0611 4.94973 14.9439 5.06694C14.8267 5.18415 14.6677 5.25 14.502 5.25H4.50195C4.33619 5.25 4.17722 5.18415 4.06001 5.06694C3.9428 4.94973 3.87695 4.79076 3.87695 4.625C3.87695 4.45924 3.9428 4.30027 4.06001 4.18306C4.17722 4.06585 4.33619 4 4.50195 4H14.502C14.6677 4 14.8267 4.06585 14.9439 4.18306C15.0611 4.30027 15.127 4.45924 15.127 4.625ZM17.627 0.25H1.37695C1.21119 0.25 1.05222 0.315848 0.935011 0.433058C0.817801 0.550269 0.751953 0.70924 0.751953 0.875C0.751953 1.04076 0.817801 1.19973 0.935011 1.31694C1.05222 1.43415 1.21119 1.5 1.37695 1.5H17.627C17.7927 1.5 17.9517 1.43415 18.0689 1.31694C18.1861 1.19973 18.252 1.04076 18.252 0.875C18.252 0.70924 18.1861 0.550269 18.0689 0.433058C17.9517 0.315848 17.7927 0.25 17.627 0.25ZM11.377 7.75H7.62695C7.46119 7.75 7.30222 7.81585 7.18501 7.93306C7.0678 8.05027 7.00195 8.20924 7.00195 8.375C7.00195 8.54076 7.0678 8.69973 7.18501 8.81694C7.30222 8.93415 7.46119 9 7.62695 9H11.377C11.5427 9 11.7017 8.93415 11.8189 8.81694C11.9361 8.69973 12.002 8.54076 12.002 8.375C12.002 8.20924 11.9361 8.05027 11.8189 7.93306C11.7017 7.81585 11.5427 7.75 11.377 7.75Z" fill="white" fill-opacity="0.5"/>
</svg>
