<svg width="24" height="24" viewBox="0 0 24 24" fill="none" xmlns="http://www.w3.org/2000/svg">
<g clip-path="url(#clip0_11_1235)">
<path d="M12.0293 0H11.9746C5.3623 0 0.00195312 5.36035 0.00195312 11.9727V12.0273C0.00195312 18.6397 5.3623 24 11.9746 24H12.0293C18.6416 24 24.002 18.6397 24.002 12.0273V11.9727C24.002 5.36035 18.6416 0 12.0293 0Z" fill="url(#paint0_radial_11_1235)"/>
<path fill-rule="evenodd" clip-rule="evenodd" d="M15.7124 4.88281H8.28613C6.23449 4.88281 4.56543 6.55187 4.56543 8.60351V15.3975C4.56543 17.4491 6.23449 19.1182 8.28613 19.1182H15.7124C17.764 19.1182 19.4331 17.4491 19.4331 15.3975V8.60351C19.4331 6.55187 17.764 4.88281 15.7124 4.88281ZM5.87798 8.60351C5.87798 7.27583 6.95845 6.19536 8.28613 6.19536H15.7124C17.0401 6.19536 18.1206 7.27583 18.1206 8.60351V15.3975C18.1206 16.7252 17.0401 17.8056 15.7124 17.8056H8.28613C6.95845 17.8056 5.87798 16.7252 5.87798 15.3975V8.60351ZM11.9999 15.4608C13.9078 15.4608 15.4608 13.9086 15.4608 11.9999C15.4608 10.0912 13.9086 8.53906 11.9999 8.53906C10.0912 8.53906 8.53906 10.0912 8.53906 11.9999C8.53906 13.9086 10.0912 15.4608 11.9999 15.4608ZM11.9999 9.85245C13.1847 9.85245 14.1483 10.816 14.1483 12.0008C14.1483 13.1855 13.1847 14.1491 11.9999 14.1491C10.8152 14.1491 9.85161 13.1855 9.85161 12.0008C9.85161 10.816 10.8152 9.85245 11.9999 9.85245ZM16.714 8.16491C16.714 8.6795 16.2954 9.0974 15.7818 9.0974C15.2674 9.0974 14.8496 8.6795 14.8496 8.16491C14.8496 7.65032 15.2674 7.23242 15.7818 7.23242C16.2963 7.23242 16.714 7.65032 16.714 8.16491Z" fill="white"/>
</g>
<defs>
<radialGradient id="paint0_radial_11_1235" cx="0" cy="0" r="1" gradientUnits="userSpaceOnUse" gradientTransform="translate(6.37698 25.8485) rotate(-90) scale(23.7858 22.1226)">
<stop stop-color="#FFDD55"/>
<stop offset="0.1" stop-color="#FFDD55"/>
<stop offset="0.5" stop-color="#FF543E"/>
<stop offset="1" stop-color="#C837AB"/>
</radialGradient>
<clipPath id="clip0_11_1235">
<rect width="24" height="24" fill="white"/>
</clipPath>
</defs>
</svg>
