<svg width="24" height="24" viewBox="0 0 24 24" fill="none" xmlns="http://www.w3.org/2000/svg">
<g clip-path="url(#clip0_11_1330)">
<mask id="mask0_11_1330" style="mask-type:luminance" maskUnits="userSpaceOnUse" x="0" y="0" width="24" height="24">
<path d="M23.881 0H0.118652V24H23.881V0Z" fill="white"/>
</mask>
<g mask="url(#mask0_11_1330)">
<path d="M0.118652 11.52C0.118652 6.08942 0.118652 3.37414 1.78901 1.68707C3.45938 0 6.14779 0 11.5246 0H12.4751C17.8519 0 20.5403 0 22.2107 1.68707C23.881 3.37414 23.881 6.08942 23.881 11.52V12.48C23.881 17.9106 23.881 20.6259 22.2107 22.3129C20.5403 24 17.8519 24 12.4751 24H11.5246C6.14779 24 3.45938 24 1.78901 22.3129C0.118652 20.6259 0.118652 17.9106 0.118652 12.48V11.52Z" fill="white" fill-opacity="0.3"/>
<path d="M12.7621 17.2898C7.34622 17.2898 4.25714 13.5398 4.12842 7.2998H6.8413C6.93041 11.8798 8.93037 13.8198 10.5145 14.2198V7.2998H13.0691V11.2498C14.6334 11.0798 16.2768 9.2798 16.8312 7.2998H19.3858C18.96 9.73981 17.1778 11.5398 15.9105 12.2798C17.1778 12.8798 19.2076 14.4498 19.9799 17.2898H17.168C16.564 15.3898 15.0592 13.9198 13.0691 13.7198V17.2898H12.7621Z" fill="white"/>
</g>
</g>
<defs>
<clipPath id="clip0_11_1330">
<rect width="24" height="24" fill="white"/>
</clipPath>
</defs>
</svg>
