<svg width="14" height="13" viewBox="0 0 14 13" fill="none" xmlns="http://www.w3.org/2000/svg">
<path d="M7 0C5.71442 0 4.45772 0.381218 3.3888 1.09545C2.31988 1.80968 1.48676 2.82484 0.994786 4.01256C0.502816 5.20028 0.374095 6.50721 0.624899 7.76809C0.875703 9.02896 1.49477 10.1872 2.40381 11.0962C3.31285 12.0052 4.47104 12.6243 5.73192 12.8751C6.99279 13.1259 8.29973 12.9972 9.48744 12.5052C10.6752 12.0132 11.6903 11.1801 12.4046 10.1112C13.1188 9.04229 13.5 7.78558 13.5 6.5C13.4982 4.77665 12.8128 3.12441 11.5942 1.90582C10.3756 0.687224 8.72335 0.00181989 7 0ZM6.75 3C6.89834 3 7.04334 3.04399 7.16668 3.1264C7.29002 3.20881 7.38615 3.32594 7.44291 3.46299C7.49968 3.60003 7.51453 3.75083 7.48559 3.89632C7.45665 4.0418 7.38522 4.17544 7.28033 4.28033C7.17544 4.38522 7.04181 4.45665 6.89632 4.48559C6.75083 4.51453 6.60003 4.49968 6.46299 4.44291C6.32595 4.38614 6.20881 4.29001 6.1264 4.16668C6.04399 4.04334 6 3.89834 6 3.75C6 3.55109 6.07902 3.36032 6.21967 3.21967C6.36032 3.07902 6.55109 3 6.75 3ZM7.5 10C7.23479 10 6.98043 9.89464 6.7929 9.70711C6.60536 9.51957 6.5 9.26522 6.5 9V6.5C6.36739 6.5 6.24022 6.44732 6.14645 6.35355C6.05268 6.25979 6 6.13261 6 6C6 5.86739 6.05268 5.74021 6.14645 5.64645C6.24022 5.55268 6.36739 5.5 6.5 5.5C6.76522 5.5 7.01957 5.60536 7.20711 5.79289C7.39465 5.98043 7.5 6.23478 7.5 6.5V9C7.63261 9 7.75979 9.05268 7.85356 9.14645C7.94732 9.24021 8 9.36739 8 9.5C8 9.63261 7.94732 9.75979 7.85356 9.85355C7.75979 9.94732 7.63261 10 7.5 10Z" fill="#9199A0"/>
</svg>
