<svg width="25" height="26" viewBox="0 0 25 26" fill="none" xmlns="http://www.w3.org/2000/svg">
<g clip-path="url(#clip0_141_1327)">
<path d="M12.5 25.5C19.4036 25.5 25 19.9036 25 13C25 6.09644 19.4036 0.5 12.5 0.5C5.59644 0.5 0 6.09644 0 13C0 19.9036 5.59644 25.5 12.5 25.5Z" fill="#28A8E9"/>
<path fill-rule="evenodd" clip-rule="evenodd" d="M5.65733 12.8684C9.30134 11.2808 11.7312 10.2341 12.9471 9.72844C16.4184 8.28458 17.1398 8.03376 17.6099 8.02548C17.7133 8.02366 17.9445 8.04928 18.0943 8.17081C18.2207 8.27342 18.2555 8.41204 18.2722 8.50932C18.2888 8.60661 18.3096 8.82824 18.2931 9.00141C18.105 10.978 17.291 15.7745 16.8769 17.9883C16.7017 18.925 16.3567 19.2391 16.0226 19.2698C15.2967 19.3366 14.7455 18.7901 14.0425 18.3292C12.9423 17.6081 12.3208 17.1591 11.2529 16.4554C10.0187 15.6421 10.8188 15.1951 11.5221 14.4646C11.7062 14.2734 14.9045 11.3643 14.9664 11.1004C14.9741 11.0674 14.9813 10.9444 14.9082 10.8794C14.8352 10.8144 14.7273 10.8367 14.6494 10.8543C14.5391 10.8794 12.7816 12.041 9.37686 14.3393C8.87799 14.6819 8.42613 14.8488 8.02128 14.84C7.57497 14.8304 6.71644 14.5877 6.07821 14.3802C5.2954 14.1257 4.67323 13.9912 4.72741 13.559C4.75563 13.334 5.0656 13.1038 5.65733 12.8684Z" fill="white"/>
</g>
<defs>
<clipPath id="clip0_141_1327">
<rect width="25" height="25" fill="white" transform="translate(0 0.5)"/>
</clipPath>
</defs>
</svg>
