<svg width="8" height="14" viewBox="0 0 8 14" fill="none" xmlns="http://www.w3.org/2000/svg">
<path d="M0.875061 13.875C0.792976 13.8751 0.711683 13.8589 0.635852 13.8275C0.560022 13.7961 0.491148 13.75 0.433186 13.6919C0.375113 13.6339 0.329043 13.565 0.297611 13.4892C0.266179 13.4133 0.25 13.3321 0.25 13.25C0.25 13.1679 0.266179 13.0866 0.297611 13.0108C0.329043 12.935 0.375113 12.8661 0.433186 12.8081L6.24131 6.99998L0.433186 1.19186C0.188967 0.947636 0.188967 0.552168 0.433186 0.308105C0.677405 0.064043 1.07287 0.0638867 1.31694 0.308105L7.56694 6.55811C7.62501 6.61611 7.67108 6.68499 7.70251 6.76081C7.73394 6.83663 7.75012 6.9179 7.75012 6.99998C7.75012 7.08206 7.73394 7.16333 7.70251 7.23915C7.67108 7.31497 7.62501 7.38385 7.56694 7.44186L1.31694 13.6919C1.25897 13.75 1.1901 13.7961 1.11427 13.8275C1.03844 13.8589 0.957146 13.8751 0.875061 13.875Z" fill="black"/>
</svg>
