<svg width="70" height="70" viewBox="0 0 70 70" fill="none" xmlns="http://www.w3.org/2000/svg">
<g filter="url(#filter0_b_75_867)">
<rect width="70" height="70" rx="35" fill="white" fill-opacity="0.1"/>
<g clip-path="url(#clip0_75_867)">
<path d="M21.2778 48.928C21.1207 48.8409 21.0027 48.6426 21 48.4612C20.9989 48.3883 21.4963 47.0364 22.1052 45.457L23.2123 42.5854L23.0334 42.2769C22.7041 41.7095 22.048 40.3318 21.8433 39.7783C21.5827 39.0735 21.2557 37.7679 21.13 36.9311C21.008 36.1187 20.989 34.0149 21.0969 33.2626C21.5618 30.0209 22.9032 27.2832 25.1064 25.0795C27.3072 22.8782 30.0797 21.5154 33.2602 21.0715C33.9437 20.9762 36.0801 20.9762 36.7637 21.0715C40.8594 21.6431 44.3421 23.7858 46.6113 27.1301C47.8136 28.9022 48.5463 30.8052 48.8984 33.071C49.0212 33.8606 49.0362 36.0146 48.9242 36.7669C48.4481 39.9654 47.0651 42.7643 44.8942 44.9225C41.5091 48.288 36.6922 49.6867 31.9738 48.6744C30.7783 48.4179 28.9847 47.7059 27.8681 47.0448L27.5944 46.8827L24.6384 47.9411C23.0126 48.5232 21.6207 48.9997 21.5455 49C21.4702 49.0003 21.3498 48.9679 21.2778 48.928Z" fill="white" fill-opacity="0.5"/>
<path d="M41.0593 41.0369C40.6618 41.4298 40.2549 41.6806 39.7099 41.8686C39.2003 42.0444 38.2894 42.0911 37.7483 41.9692C36.4871 41.685 34.556 40.6836 32.9036 39.4568C31.3422 38.2976 29.998 36.6129 28.8788 34.4127C28.0104 32.7053 27.78 31.6164 28.0575 30.5311C28.3626 29.3379 29.3035 28.3529 30.4639 28.0117C30.6746 27.9498 30.9873 27.9243 31.5377 27.9243C32.2452 27.9243 32.3271 27.9346 32.4612 28.0401C32.5543 28.1133 32.8535 28.6415 33.2753 29.4774L33.9423 30.7989L33.9404 31.2643C33.9387 31.6804 33.9181 31.7732 33.7457 32.1405C33.6396 32.3664 33.3899 32.7531 33.1908 32.9998L32.8287 33.4484L33.0855 33.9607C33.7534 35.2927 34.7385 36.266 36.102 36.9408L36.5635 37.1692L36.8773 36.886C37.5395 36.2883 38.1987 36.001 38.8157 36.0413C39.175 36.0647 39.2809 36.1074 40.5127 36.7252C41.2353 37.0876 41.8758 37.4388 41.936 37.5055C42.0327 37.6127 42.0476 37.7186 42.0631 38.4077C42.0794 39.1323 42.0703 39.2194 41.9359 39.6198C41.7465 40.1841 41.4703 40.6306 41.0593 41.0369Z" fill="white"/>
</g>
</g>
<defs>
<filter id="filter0_b_75_867" x="-14" y="-14" width="98" height="98" filterUnits="userSpaceOnUse" color-interpolation-filters="sRGB">
<feFlood flood-opacity="0" result="BackgroundImageFix"/>
<feGaussianBlur in="BackgroundImageFix" stdDeviation="7"/>
<feComposite in2="SourceAlpha" operator="in" result="effect1_backgroundBlur_75_867"/>
<feBlend mode="normal" in="SourceGraphic" in2="effect1_backgroundBlur_75_867" result="shape"/>
</filter>
<clipPath id="clip0_75_867">
<rect width="28" height="28" fill="white" transform="translate(21 21)"/>
</clipPath>
</defs>
</svg>
