<svg width="25" height="26" viewBox="0 0 25 26" fill="none" xmlns="http://www.w3.org/2000/svg">
<g clip-path="url(#clip0_141_1322)">
<path d="M0.248032 25.4357C0.107745 25.3579 0.0023718 25.1809 1.5314e-06 25.0189C-0.000951561 24.9539 0.443097 23.7468 0.986775 22.3366L1.97528 19.7727L1.81549 19.4973C1.52156 18.9907 0.935687 17.7605 0.752986 17.2664C0.520309 16.637 0.228261 15.4714 0.116055 14.7242C0.00712858 13.9989 -0.00981402 12.1204 0.0865124 11.4487C0.501608 8.55438 1.6993 6.10998 3.66639 4.14244C5.63145 2.17694 8.10686 0.96016 10.9466 0.563876C11.5569 0.478708 13.4644 0.478708 14.0747 0.563876C17.7316 1.07419 20.8412 2.98733 22.8672 5.97334C23.9408 7.5555 24.5949 9.25466 24.9093 11.2776C25.0189 11.9827 25.0323 13.9058 24.9323 14.5775C24.5073 17.4334 23.2724 19.9324 21.3341 21.8594C18.3117 24.8643 14.0109 26.1131 9.79801 25.2092C8.73063 24.9802 7.1292 24.3446 6.13227 23.7543L5.88789 23.6095L3.24856 24.5545C1.79693 25.0743 0.55424 25.4997 0.487034 25.5C0.419829 25.5003 0.312278 25.4713 0.248032 25.4357Z" fill="#25D366"/>
<path d="M17.9092 18.3903C17.5543 18.7411 17.191 18.965 16.7044 19.1328C16.2494 19.2898 15.4361 19.3315 14.953 19.2226C13.8269 18.9689 12.1027 18.0748 10.6274 16.9795C9.23327 15.9445 8.03305 14.4403 7.03381 12.4758C6.25842 10.9514 6.05268 9.97911 6.30044 9.01013C6.57285 7.94477 7.41294 7.06524 8.44903 6.76066C8.63719 6.70534 8.91638 6.68262 9.40775 6.68262C10.0395 6.68262 10.1127 6.69179 10.2324 6.78599C10.3155 6.85138 10.5826 7.32295 10.9592 8.06929L11.5547 9.24921L11.553 9.66476C11.5515 10.0363 11.5331 10.1192 11.3792 10.447C11.2845 10.6488 11.0615 10.994 10.8837 11.2143L10.5604 11.6149L10.7898 12.0723C11.3861 13.2615 12.2657 14.1305 13.483 14.733L13.8951 14.937L14.1753 14.6842C14.7665 14.1504 15.3551 13.8939 15.906 13.9299C16.2268 13.9508 16.3213 13.9889 17.4212 14.5406C18.0664 14.8641 18.6382 15.1777 18.692 15.2373C18.7783 15.3329 18.7916 15.4275 18.8055 16.0428C18.8201 16.6898 18.8119 16.7675 18.6919 17.1251C18.5228 17.6288 18.2762 18.0275 17.9092 18.3903Z" fill="white"/>
</g>
<defs>
<clipPath id="clip0_141_1322">
<rect width="25" height="25" fill="white" transform="translate(0 0.5)"/>
</clipPath>
</defs>
</svg>
