<svg width="24" height="24" viewBox="0 0 24 24" fill="none" xmlns="http://www.w3.org/2000/svg">
<g clip-path="url(#clip0_11_1337)">
<path d="M12.0293 0H11.9746C5.3623 0 0.00195312 5.36035 0.00195312 11.9727V12.0273C0.00195312 18.6397 5.3623 24 11.9746 24H12.0293C18.6416 24 24.002 18.6397 24.002 12.0273V11.9727C24.002 5.36035 18.6416 0 12.0293 0Z" fill="white" fill-opacity="0.3"/>
<path fill-rule="evenodd" clip-rule="evenodd" d="M15.7129 4.88281H8.28662C6.23498 4.88281 4.56592 6.55187 4.56592 8.60351V15.3975C4.56592 17.4491 6.23498 19.1182 8.28662 19.1182H15.7129C17.7645 19.1182 19.4336 17.4491 19.4336 15.3975V8.60351C19.4336 6.55187 17.7645 4.88281 15.7129 4.88281ZM5.87847 8.60351C5.87847 7.27583 6.95894 6.19536 8.28662 6.19536H15.7129C17.0406 6.19536 18.121 7.27583 18.121 8.60351V15.3975C18.121 16.7252 17.0406 17.8056 15.7129 17.8056H8.28662C6.95894 17.8056 5.87847 16.7252 5.87847 15.3975V8.60351ZM12.0004 15.4608C13.9083 15.4608 15.4613 13.9086 15.4613 11.9999C15.4613 10.0912 13.9091 8.53906 12.0004 8.53906C10.0917 8.53906 8.53955 10.0912 8.53955 11.9999C8.53955 13.9086 10.0917 15.4608 12.0004 15.4608ZM12.0004 9.85245C13.1852 9.85245 14.1488 10.816 14.1488 12.0008C14.1488 13.1855 13.1852 14.1491 12.0004 14.1491C10.8157 14.1491 9.8521 13.1855 9.8521 12.0008C9.8521 10.816 10.8157 9.85245 12.0004 9.85245ZM16.7145 8.16589C16.7145 8.68048 16.2959 9.09838 15.7823 9.09838C15.2679 9.09838 14.8501 8.68048 14.8501 8.16589C14.8501 7.6513 15.2679 7.2334 15.7823 7.2334C16.2967 7.2334 16.7145 7.6513 16.7145 8.16589Z" fill="white"/>
</g>
<defs>
<clipPath id="clip0_11_1337">
<rect width="24" height="24" fill="white"/>
</clipPath>
</defs>
</svg>
